# MagicaVoxel @ Ephtracy

# group
o 

# material
mtllib enemy_Physics.mtl
usemtl palette

# normals
vn -1 0 0
vn 1 0 0
vn 0 0 1
vn 0 0 -1
vn 0 -1 0
vn 0 1 0

# texcoords
vt 0.306641 0.5
vt 0.845703 0.5
vt 0.888672 0.5
vt 0.962891 0.5
vt 0.986328 0.5
vt 0.990234 0.5

# verts
v -2.7 4.7 0.6
v -2.7 4.7 -0.5
v -2.7 4.8 0.5
v -2.7 4.8 -0.4
v -2.7 5.9 0.5
v -2.7 5.9 -0.4
v -2.7 6 0.6
v -2.7 6 -0.5
v -2.5 2.9 2.1
v -2.5 2.9 -0.3
v -2.5 3 2
v -2.5 3 -0.2
v -2.5 3.7 2
v -2.5 3.7 -0.2
v -2.5 3.8 2.1
v -2.5 3.8 0.4
v -2.5 3.8 0.3
v -2.5 3.8 -0.2
v -2.5 4.6 0.3
v -2.5 4.6 -0.2
v -2.5 4.7 0.4
v -2.5 4.7 -0.3
v -1.5 3.3 1.5
v -1.5 3.3 -1.5
v -1.5 3.4 1.4
v -1.5 3.4 -1.4
v -1.5 4.7 0
v -1.5 4.7 -0.0999999
v -1.5 4.8 0.5
v -1.5 4.8 0
v -1.5 4.8 -0.0999999
v -1.5 4.8 -0.4
v -1.5 5.8 0.5
v -1.5 5.8 -0.4
v -1.5 6.2 1.4
v -1.5 6.2 -1.4
v -1.5 6.3 1.5
v -1.5 6.3 -1.5
v 0.6 4.1 1.5
v 0.6 4.1 1.4
v 0.6 5.4 1.5
v 0.6 5.4 1.4
v 1.8 4.7 0.6
v 1.8 4.7 -0.5
v 1.8 4.8 0.5
v 1.8 4.8 -0.4
v 1.8 5.8 0.5
v 1.8 5.8 -0.4
v 1.8 5.9 0.5
v 1.8 5.9 -0.4
v 1.8 6 0.6
v 1.8 6 -0.5
v 2 2.9 2
v 2 2.9 -0.3
v 2 3 1.9
v 2 3 -0.2
v 2 3.7 1.9
v 2 3.7 -0.2
v 2 3.8 2
v 2 3.8 0.4
v 2 3.8 0.3
v 2 3.8 -0.2
v 2 4.6 0.3
v 2 4.6 -0.2
v 2 4.7 0.4
v 2 4.7 -0.3
v -2 2.9 2.1
v -2 2.9 -0.3
v -2 3 2
v -2 3 -0.2
v -2 3.7 2
v -2 3.7 -0.2
v -2 3.8 2.1
v -2 3.8 0.4
v -2 3.8 0.3
v -2 3.8 -0.2
v -2 4.6 0.3
v -2 4.6 -0.2
v -2 4.7 0.4
v -2 4.7 -0.3
v -1.8 4.7 0.6
v -1.8 4.7 -0.5
v -1.8 4.8 0.5
v -1.8 4.8 -0.4
v -1.8 5.8 0.5
v -1.8 5.8 -0.3
v -1.8 5.8 -0.4
v -1.8 5.9 -0.3
v -1.8 5.9 -0.4
v -1.8 6 0.6
v -1.8 6 -0.5
v -0.7 4.1 1.5
v -0.7 4.1 1.4
v -0.7 5.4 1.5
v -0.7 5.4 1.4
v 1.4 6.2 1.5
v 1.4 6.2 1.4
v 1.4 6.3 1.5
v 1.4 6.3 1.4
v 1.5 3.3 1.5
v 1.5 3.3 -1.5
v 1.5 3.4 1.4
v 1.5 3.4 -1.4
v 1.5 4.8 0.5
v 1.5 4.8 -0.4
v 1.5 5.8 0.5
v 1.5 5.8 -0.4
v 1.5 6.2 1.5
v 1.5 6.2 1.4
v 1.5 6.2 -1.4
v 1.5 6.3 1.4
v 1.5 6.3 -1.5
v 2.5 2.9 2
v 2.5 2.9 -0.3
v 2.5 3 1.9
v 2.5 3 -0.2
v 2.5 3.7 1.9
v 2.5 3.7 -0.2
v 2.5 3.8 2
v 2.5 3.8 0.4
v 2.5 3.8 0.3
v 2.5 3.8 -0.2
v 2.5 4.6 0.3
v 2.5 4.6 -0.2
v 2.5 4.7 0.4
v 2.5 4.7 -0.3
v 2.6 4.7 0.6
v 2.6 4.7 -0.5
v 2.6 4.8 0.5
v 2.6 4.8 -0.4
v 2.6 5.9 0.5
v 2.6 5.9 -0.4
v 2.6 6 0.6
v 2.6 6 -0.5
v -2.5 2.9 2.1
v -2.5 3.8 2.1
v -2.4 3 2.1
v -2.4 3.7 2.1
v -2.1 3 2.1
v -2.1 3.7 2.1
v -2 2.9 2.1
v -2 3.8 2.1
v 2 2.9 2
v 2 3.8 2
v 2.1 3 2
v 2.1 3.7 2
v 2.4 3 2
v 2.4 3.7 2
v 2.5 2.9 2
v 2.5 3.8 2
v -1.5 3.3 1.5
v -1.5 6.3 1.5
v -1.4 3.4 1.5
v -1.4 6.2 1.5
v -0.7 4.1 1.5
v -0.7 5.4 1.5
v 0.6 4.1 1.5
v 0.6 5.4 1.5
v 1.4 3.4 1.5
v 1.4 6.2 1.5
v 1.4 6.3 1.5
v 1.5 3.3 1.5
v 1.5 6.2 1.5
v -0.7 4.1 1.4
v -0.7 5.4 1.4
v 0.6 4.1 1.4
v 0.6 5.4 1.4
v 1.4 6.2 1.4
v 1.4 6.3 1.4
v 1.5 6.2 1.4
v 1.5 6.3 1.4
v -2.7 4.7 0.6
v -2.7 6 0.6
v -2.6 4.8 0.6
v -2.6 5.9 0.6
v -1.9 4.8 0.6
v -1.9 5.9 0.6
v -1.8 4.7 0.6
v -1.8 6 0.6
v 1.8 4.7 0.6
v 1.8 6 0.6
v 1.9 4.8 0.6
v 1.9 5.9 0.6
v 2.5 4.8 0.6
v 2.5 5.9 0.6
v 2.6 4.7 0.6
v 2.6 6 0.6
v -1.8 4.8 0.5
v -1.8 5.8 0.5
v -1.7 4.9 0.5
v -1.7 5.7 0.5
v -1.6 4.9 0.5
v -1.6 5.7 0.5
v -1.5 4.8 0.5
v -1.5 5.8 0.5
v 1.5 4.8 0.5
v 1.5 5.8 0.5
v 1.6 4.9 0.5
v 1.6 5.7 0.5
v 1.7 4.9 0.5
v 1.7 5.7 0.5
v 1.8 4.8 0.5
v 1.8 5.8 0.5
v -2.5 3.8 0.4
v -2.5 4.7 0.4
v -2.4 3.8 0.4
v -2.4 4.7 0.4
v -2.1 3.8 0.4
v -2.1 4.7 0.4
v -2 3.8 0.4
v -2 4.7 0.4
v 2 3.8 0.4
v 2 4.7 0.4
v 2.1 3.8 0.4
v 2.1 4.6 0.4
v 2.4 3.8 0.4
v 2.4 4.6 0.4
v 2.5 3.8 0.4
v 2.5 4.7 0.4
v -2.5 2.9 -0.3
v -2.5 4.7 -0.3
v -2.4 3 -0.3
v -2.4 3.7 -0.3
v -2.4 3.8 -0.3
v -2.4 4.6 -0.3
v -2.1 3 -0.3
v -2.1 3.7 -0.3
v -2.1 3.8 -0.3
v -2.1 4.6 -0.3
v -2 2.9 -0.3
v -2 4.7 -0.3
v 2 2.9 -0.3
v 2 4.7 -0.3
v 2.1 3 -0.3
v 2.1 3.7 -0.3
v 2.1 3.8 -0.3
v 2.1 4.6 -0.3
v 2.4 3 -0.3
v 2.4 3.7 -0.3
v 2.4 3.8 -0.3
v 2.4 4.6 -0.3
v 2.5 2.9 -0.3
v 2.5 4.7 -0.3
v -1.8 4.8 -0.4
v -1.8 5.8 -0.4
v -1.7 4.9 -0.4
v -1.7 5.7 -0.4
v -1.6 4.9 -0.4
v -1.6 5.7 -0.4
v -1.5 4.8 -0.4
v -1.5 5.8 -0.4
v 1.5 4.8 -0.4
v 1.5 5.8 -0.4
v 1.6 4.9 -0.4
v 1.6 5.7 -0.4
v 1.7 4.9 -0.4
v 1.7 5.7 -0.4
v 1.8 4.8 -0.4
v 1.8 5.8 -0.4
v -2.7 4.7 -0.5
v -2.7 6 -0.5
v -2.6 4.8 -0.5
v -2.6 5.9 -0.5
v -1.9 4.8 -0.5
v -1.9 5.9 -0.5
v -1.8 4.7 -0.5
v -1.8 6 -0.5
v 1.8 4.7 -0.5
v 1.8 6 -0.5
v 1.9 4.8 -0.5
v 1.9 5.9 -0.5
v 2.5 4.8 -0.5
v 2.5 5.9 -0.5
v 2.6 4.7 -0.5
v 2.6 6 -0.5
v -1.5 3.3 -1.5
v -1.5 6.3 -1.5
v -1.4 3.4 -1.5
v -1.4 6.2 -1.5
v 1.4 3.4 -1.5
v 1.4 6.2 -1.5
v 1.5 3.3 -1.5
v 1.5 6.3 -1.5
v -2.5 2.9 2.1
v -2 2.9 2.1
v -2.4 2.9 2
v -2.1 2.9 2
v 2 2.9 2
v 2.5 2.9 2
v 2.1 2.9 1.9
v 2.4 2.9 1.9
v -2.4 2.9 -0.2
v -2.1 2.9 -0.2
v 2.1 2.9 -0.2
v 2.4 2.9 -0.2
v -2.5 2.9 -0.3
v -2 2.9 -0.3
v 2 2.9 -0.3
v 2.5 2.9 -0.3
v -1.5 3.3 1.5
v 1.5 3.3 1.5
v -1.4 3.3 1.4
v 1.4 3.3 1.4
v -1.4 3.3 -1.4
v 1.4 3.3 -1.4
v -1.5 3.3 -1.5
v 1.5 3.3 -1.5
v -2.7 4.7 0.6
v -1.8 4.7 0.6
v 1.8 4.7 0.6
v 2.6 4.7 0.6
v -2.6 4.7 0.5
v -1.9 4.7 0.5
v 1.9 4.7 0.5
v 2.5 4.7 0.5
v -2.5 4.7 0.4
v -2.4 4.7 0.4
v -2.1 4.7 0.4
v -2 4.7 0.4
v 2 4.7 0.4
v 2.5 4.7 0.4
v -2.5 4.7 -0.3
v -2 4.7 -0.3
v 2 4.7 -0.3
v 2.5 4.7 -0.3
v -2.6 4.7 -0.4
v -1.9 4.7 -0.4
v 1.9 4.7 -0.4
v 2.5 4.7 -0.4
v -2.7 4.7 -0.5
v -1.8 4.7 -0.5
v 1.8 4.7 -0.5
v 2.6 4.7 -0.5
v -1.8 4.8 0.5
v -1.5 4.8 0.5
v 1.5 4.8 0.5
v 1.8 4.8 0.5
v -1.7 4.8 0.4
v -1.6 4.8 0.4
v 1.6 4.8 0.4
v 1.7 4.8 0.4
v -1.5 4.8 0
v -1.5 4.8 -0.0999999
v -1.7 4.8 -0.2
v -1.6 4.8 -0.2
v 1.6 4.8 -0.3
v 1.7 4.8 -0.3
v -1.8 4.8 -0.4
v -1.5 4.8 -0.4
v 1.5 4.8 -0.4
v 1.8 4.8 -0.4
v -0.7 5.4 1.5
v 0.6 5.4 1.5
v -0.7 5.4 1.4
v 0.6 5.4 1.4
v -2.5 3.8 2.1
v -2 3.8 2.1
v -2.4 3.8 2
v -2.1 3.8 2
v 2 3.8 2
v 2.5 3.8 2
v 2.1 3.8 1.9
v 2.4 3.8 1.9
v -2.4 3.8 0.5
v -2.1 3.8 0.5
v 2.1 3.8 0.5
v 2.4 3.8 0.5
v -2.5 3.8 0.4
v -2.4 3.8 0.4
v -2.1 3.8 0.4
v -2 3.8 0.4
v 2 3.8 0.4
v 2.1 3.8 0.4
v 2.4 3.8 0.4
v 2.5 3.8 0.4
v -0.7 4.1 1.5
v 0.6 4.1 1.5
v -0.7 4.1 1.4
v 0.6 4.1 1.4
v -1.8 5.8 0.5
v -1.5 5.8 0.5
v 1.5 5.8 0.5
v 1.8 5.8 0.5
v -1.7 5.8 0.4
v -1.6 5.8 0.4
v 1.6 5.8 0.4
v 1.7 5.8 0.4
v -1.8 5.8 -0.3
v -1.7 5.8 -0.3
v -1.6 5.8 -0.3
v 1.6 5.8 -0.3
v 1.7 5.8 -0.3
v -1.8 5.8 -0.4
v -1.5 5.8 -0.4
v 1.5 5.8 -0.4
v 1.8 5.8 -0.4
v -2.7 6 0.6
v -1.8 6 0.6
v 1.8 6 0.6
v 2.6 6 0.6
v -2.6 6 0.5
v -1.9 6 0.5
v 1.9 6 0.5
v 2.5 6 0.5
v -2.6 6 -0.4
v -1.9 6 -0.4
v 1.9 6 -0.4
v 2.5 6 -0.4
v -2.7 6 -0.5
v -1.8 6 -0.5
v 1.8 6 -0.5
v 2.6 6 -0.5
v 1.4 6.2 1.5
v 1.5 6.2 1.5
v 1.4 6.2 1.4
v 1.5 6.2 1.4
v -1.5 6.3 1.5
v 1.4 6.3 1.5
v -1.4 6.3 1.4
v 1.4 6.3 1.4
v 1.5 6.3 1.4
v -1.4 6.3 -1.4
v 1.4 6.3 -1.4
v -1.5 6.3 -1.5
v 1.5 6.3 -1.5

# faces
f 3/3/1 2/3/1 1/3/1
f 4/3/1 2/3/1 3/3/1
f 5/3/1 3/3/1 1/3/1
f 5/4/1 4/4/1 3/4/1
f 6/3/1 2/3/1 4/3/1
f 6/4/1 4/4/1 5/4/1
f 7/3/1 5/3/1 1/3/1
f 7/3/1 6/3/1 5/3/1
f 8/3/1 2/3/1 6/3/1
f 8/3/1 6/3/1 7/3/1
f 11/3/1 10/3/1 9/3/1
f 12/3/1 10/3/1 11/3/1
f 13/3/1 11/3/1 9/3/1
f 13/4/1 12/4/1 11/4/1
f 14/3/1 10/3/1 12/3/1
f 14/4/1 12/4/1 13/4/1
f 15/3/1 13/3/1 9/3/1
f 15/3/1 14/3/1 13/3/1
f 16/3/1 14/3/1 15/3/1
f 17/3/1 14/3/1 16/3/1
f 18/3/1 10/3/1 14/3/1
f 18/3/1 14/3/1 17/3/1
f 19/3/1 17/3/1 16/3/1
f 19/4/1 18/4/1 17/4/1
f 20/3/1 10/3/1 18/3/1
f 20/4/1 18/4/1 19/4/1
f 21/3/1 19/3/1 16/3/1
f 21/3/1 20/3/1 19/3/1
f 22/3/1 10/3/1 20/3/1
f 22/3/1 20/3/1 21/3/1
f 25/6/1 24/6/1 23/6/1
f 26/6/1 24/6/1 25/6/1
f 27/5/1 26/5/1 25/5/1
f 28/5/1 26/5/1 27/5/1
f 29/5/1 27/5/1 25/5/1
f 30/3/1 28/3/1 27/3/1
f 30/5/1 27/5/1 29/5/1
f 31/5/1 26/5/1 28/5/1
f 31/3/1 28/3/1 30/3/1
f 32/5/1 26/5/1 31/5/1
f 33/5/1 29/5/1 25/5/1
f 34/5/1 26/5/1 32/5/1
f 35/6/1 25/6/1 23/6/1
f 35/5/1 34/5/1 33/5/1
f 35/5/1 33/5/1 25/5/1
f 36/5/1 26/5/1 34/5/1
f 36/5/1 34/5/1 35/5/1
f 36/6/1 24/6/1 26/6/1
f 37/6/1 35/6/1 23/6/1
f 37/6/1 36/6/1 35/6/1
f 38/6/1 24/6/1 36/6/1
f 38/6/1 36/6/1 37/6/1
f 41/5/1 40/5/1 39/5/1
f 42/5/1 40/5/1 41/5/1
f 45/3/1 44/3/1 43/3/1
f 46/3/1 44/3/1 45/3/1
f 47/3/1 45/3/1 43/3/1
f 48/3/1 44/3/1 46/3/1
f 49/3/1 47/3/1 43/3/1
f 49/4/1 48/4/1 47/4/1
f 50/3/1 44/3/1 48/3/1
f 50/4/1 48/4/1 49/4/1
f 51/3/1 49/3/1 43/3/1
f 51/3/1 50/3/1 49/3/1
f 52/3/1 44/3/1 50/3/1
f 52/3/1 50/3/1 51/3/1
f 55/3/1 54/3/1 53/3/1
f 56/3/1 54/3/1 55/3/1
f 57/3/1 55/3/1 53/3/1
f 57/4/1 56/4/1 55/4/1
f 58/3/1 54/3/1 56/3/1
f 58/4/1 56/4/1 57/4/1
f 59/3/1 57/3/1 53/3/1
f 59/3/1 58/3/1 57/3/1
f 60/3/1 58/3/1 59/3/1
f 61/3/1 58/3/1 60/3/1
f 62/3/1 54/3/1 58/3/1
f 62/3/1 58/3/1 61/3/1
f 63/3/1 61/3/1 60/3/1
f 63/4/1 62/4/1 61/4/1
f 64/3/1 54/3/1 62/3/1
f 64/4/1 62/4/1 63/4/1
f 65/3/1 63/3/1 60/3/1
f 65/3/1 64/3/1 63/3/1
f 66/3/1 54/3/1 64/3/1
f 66/3/1 64/3/1 65/3/1
f 67/3/2 68/3/2 69/3/2
f 69/3/2 68/3/2 70/3/2
f 67/3/2 69/3/2 71/3/2
f 69/4/2 70/4/2 71/4/2
f 70/3/2 68/3/2 72/3/2
f 71/4/2 70/4/2 72/4/2
f 67/3/2 71/3/2 73/3/2
f 71/3/2 72/3/2 73/3/2
f 73/3/2 72/3/2 74/3/2
f 74/3/2 72/3/2 75/3/2
f 72/3/2 68/3/2 76/3/2
f 75/3/2 72/3/2 76/3/2
f 74/3/2 75/3/2 77/3/2
f 75/4/2 76/4/2 77/4/2
f 76/3/2 68/3/2 78/3/2
f 77/4/2 76/4/2 78/4/2
f 74/3/2 77/3/2 79/3/2
f 77/3/2 78/3/2 79/3/2
f 78/3/2 68/3/2 80/3/2
f 79/3/2 78/3/2 80/3/2
f 81/3/2 82/3/2 83/3/2
f 83/3/2 82/3/2 84/3/2
f 81/3/2 83/3/2 85/3/2
f 84/3/2 82/3/2 87/3/2
f 85/3/2 86/3/2 88/3/2
f 86/4/2 87/4/2 88/4/2
f 87/3/2 82/3/2 89/3/2
f 88/4/2 87/4/2 89/4/2
f 85/3/2 88/3/2 90/3/2
f 81/3/2 85/3/2 90/3/2
f 88/3/2 89/3/2 90/3/2
f 89/3/2 82/3/2 91/3/2
f 90/3/2 89/3/2 91/3/2
f 92/5/2 93/5/2 94/5/2
f 94/5/2 93/5/2 95/5/2
f 96/6/2 97/6/2 98/6/2
f 98/6/2 97/6/2 99/6/2
f 100/6/2 101/6/2 102/6/2
f 102/6/2 101/6/2 103/6/2
f 102/5/2 103/5/2 104/5/2
f 104/5/2 103/5/2 105/5/2
f 102/5/2 104/5/2 106/5/2
f 105/5/2 103/5/2 107/5/2
f 100/6/2 102/6/2 108/6/2
f 106/5/2 107/5/2 109/5/2
f 108/6/2 102/6/2 109/6/2
f 102/5/2 106/5/2 109/5/2
f 103/6/2 101/6/2 110/6/2
f 109/5/2 107/5/2 110/5/2
f 107/5/2 103/5/2 110/5/2
f 109/6/2 110/6/2 111/6/2
f 110/6/2 101/6/2 112/6/2
f 111/6/2 110/6/2 112/6/2
f 113/3/2 114/3/2 115/3/2
f 115/3/2 114/3/2 116/3/2
f 113/3/2 115/3/2 117/3/2
f 115/4/2 116/4/2 117/4/2
f 116/3/2 114/3/2 118/3/2
f 117/4/2 116/4/2 118/4/2
f 113/3/2 117/3/2 119/3/2
f 117/3/2 118/3/2 119/3/2
f 119/3/2 118/3/2 120/3/2
f 120/3/2 118/3/2 121/3/2
f 118/3/2 114/3/2 122/3/2
f 121/3/2 118/3/2 122/3/2
f 120/3/2 121/3/2 123/3/2
f 121/4/2 122/4/2 123/4/2
f 122/3/2 114/3/2 124/3/2
f 123/4/2 122/4/2 124/4/2
f 120/3/2 123/3/2 125/3/2
f 123/3/2 124/3/2 125/3/2
f 124/3/2 114/3/2 126/3/2
f 125/3/2 124/3/2 126/3/2
f 127/3/2 128/3/2 129/3/2
f 129/3/2 128/3/2 130/3/2
f 127/3/2 129/3/2 131/3/2
f 129/4/2 130/4/2 131/4/2
f 130/3/2 128/3/2 132/3/2
f 131/4/2 130/4/2 132/4/2
f 127/3/2 131/3/2 133/3/2
f 131/3/2 132/3/2 133/3/2
f 132/3/2 128/3/2 134/3/2
f 133/3/2 132/3/2 134/3/2
f 137/3/3 136/3/3 135/3/3
f 138/3/3 136/3/3 137/3/3
f 139/3/3 137/3/3 135/3/3
f 139/4/3 138/4/3 137/4/3
f 140/3/3 136/3/3 138/3/3
f 140/4/3 138/4/3 139/4/3
f 141/3/3 139/3/3 135/3/3
f 141/3/3 140/3/3 139/3/3
f 142/3/3 136/3/3 140/3/3
f 142/3/3 140/3/3 141/3/3
f 145/3/3 144/3/3 143/3/3
f 146/3/3 144/3/3 145/3/3
f 147/3/3 145/3/3 143/3/3
f 147/4/3 146/4/3 145/4/3
f 148/3/3 144/3/3 146/3/3
f 148/4/3 146/4/3 147/4/3
f 149/3/3 147/3/3 143/3/3
f 149/3/3 148/3/3 147/3/3
f 150/3/3 144/3/3 148/3/3
f 150/3/3 148/3/3 149/3/3
f 153/6/3 152/6/3 151/6/3
f 154/6/3 152/6/3 153/6/3
f 155/5/3 154/5/3 153/5/3
f 156/5/3 154/5/3 155/5/3
f 157/5/3 155/5/3 153/5/3
f 158/5/3 154/5/3 156/5/3
f 159/6/3 153/6/3 151/6/3
f 159/5/3 158/5/3 157/5/3
f 159/5/3 157/5/3 153/5/3
f 160/5/3 154/5/3 158/5/3
f 160/5/3 158/5/3 159/5/3
f 160/6/3 152/6/3 154/6/3
f 161/6/3 152/6/3 160/6/3
f 162/6/3 159/6/3 151/6/3
f 162/6/3 160/6/3 159/6/3
f 163/6/3 160/6/3 162/6/3
f 166/2/3 165/2/3 164/2/3
f 167/2/3 165/2/3 166/2/3
f 170/6/3 169/6/3 168/6/3
f 171/6/3 169/6/3 170/6/3
f 174/3/3 173/3/3 172/3/3
f 175/3/3 173/3/3 174/3/3
f 176/3/3 174/3/3 172/3/3
f 176/4/3 175/4/3 174/4/3
f 177/3/3 173/3/3 175/3/3
f 177/4/3 175/4/3 176/4/3
f 178/3/3 176/3/3 172/3/3
f 178/3/3 177/3/3 176/3/3
f 179/3/3 173/3/3 177/3/3
f 179/3/3 177/3/3 178/3/3
f 182/3/3 181/3/3 180/3/3
f 183/3/3 181/3/3 182/3/3
f 184/3/3 182/3/3 180/3/3
f 184/4/3 183/4/3 182/4/3
f 185/3/3 181/3/3 183/3/3
f 185/4/3 183/4/3 184/4/3
f 186/3/3 184/3/3 180/3/3
f 186/3/3 185/3/3 184/3/3
f 187/3/3 181/3/3 185/3/3
f 187/3/3 185/3/3 186/3/3
f 190/3/3 189/3/3 188/3/3
f 191/3/3 189/3/3 190/3/3
f 192/3/3 190/3/3 188/3/3
f 192/4/3 191/4/3 190/4/3
f 193/3/3 189/3/3 191/3/3
f 193/4/3 191/4/3 192/4/3
f 194/3/3 192/3/3 188/3/3
f 194/3/3 193/3/3 192/3/3
f 195/3/3 189/3/3 193/3/3
f 195/3/3 193/3/3 194/3/3
f 198/3/3 197/3/3 196/3/3
f 199/3/3 197/3/3 198/3/3
f 200/3/3 198/3/3 196/3/3
f 200/4/3 199/4/3 198/4/3
f 201/3/3 197/3/3 199/3/3
f 201/4/3 199/4/3 200/4/3
f 202/3/3 200/3/3 196/3/3
f 202/3/3 201/3/3 200/3/3
f 203/3/3 197/3/3 201/3/3
f 203/3/3 201/3/3 202/3/3
f 206/3/3 205/3/3 204/3/3
f 207/3/3 205/3/3 206/3/3
f 208/4/3 207/4/3 206/4/3
f 209/4/3 207/4/3 208/4/3
f 210/3/3 209/3/3 208/3/3
f 211/3/3 209/3/3 210/3/3
f 214/3/3 213/3/3 212/3/3
f 215/3/3 213/3/3 214/3/3
f 216/4/3 215/4/3 214/4/3
f 217/3/3 213/3/3 215/3/3
f 217/4/3 215/4/3 216/4/3
f 218/3/3 217/3/3 216/3/3
f 219/3/3 213/3/3 217/3/3
f 219/3/3 217/3/3 218/3/3
f 220/3/4 221/3/4 222/3/4
f 222/3/4 221/3/4 223/3/4
f 223/3/4 221/3/4 224/3/4
f 224/3/4 221/3/4 225/3/4
f 220/3/4 222/3/4 226/3/4
f 222/4/4 223/4/4 226/4/4
f 223/3/4 224/3/4 227/3/4
f 226/4/4 223/4/4 227/4/4
f 224/4/4 225/4/4 228/4/4
f 227/3/4 224/3/4 228/3/4
f 225/3/4 221/3/4 229/3/4
f 228/4/4 225/4/4 229/4/4
f 227/3/4 228/3/4 230/3/4
f 226/3/4 227/3/4 230/3/4
f 228/3/4 229/3/4 230/3/4
f 220/3/4 226/3/4 230/3/4
f 229/3/4 221/3/4 231/3/4
f 230/3/4 229/3/4 231/3/4
f 232/3/4 233/3/4 234/3/4
f 234/3/4 233/3/4 235/3/4
f 235/3/4 233/3/4 236/3/4
f 236/3/4 233/3/4 237/3/4
f 232/3/4 234/3/4 238/3/4
f 234/4/4 235/4/4 238/4/4
f 235/3/4 236/3/4 239/3/4
f 238/4/4 235/4/4 239/4/4
f 236/4/4 237/4/4 240/4/4
f 239/3/4 236/3/4 240/3/4
f 237/3/4 233/3/4 241/3/4
f 240/4/4 237/4/4 241/4/4
f 239/3/4 240/3/4 242/3/4
f 238/3/4 239/3/4 242/3/4
f 240/3/4 241/3/4 242/3/4
f 232/3/4 238/3/4 242/3/4
f 241/3/4 233/3/4 243/3/4
f 242/3/4 241/3/4 243/3/4
f 244/3/4 245/3/4 246/3/4
f 246/3/4 245/3/4 247/3/4
f 244/3/4 246/3/4 248/3/4
f 246/4/4 247/4/4 248/4/4
f 247/3/4 245/3/4 249/3/4
f 248/4/4 247/4/4 249/4/4
f 244/3/4 248/3/4 250/3/4
f 248/3/4 249/3/4 250/3/4
f 249/3/4 245/3/4 251/3/4
f 250/3/4 249/3/4 251/3/4
f 252/3/4 253/3/4 254/3/4
f 254/3/4 253/3/4 255/3/4
f 252/3/4 254/3/4 256/3/4
f 254/4/4 255/4/4 256/4/4
f 255/3/4 253/3/4 257/3/4
f 256/4/4 255/4/4 257/4/4
f 252/3/4 256/3/4 258/3/4
f 256/3/4 257/3/4 258/3/4
f 257/3/4 253/3/4 259/3/4
f 258/3/4 257/3/4 259/3/4
f 260/3/4 261/3/4 262/3/4
f 262/3/4 261/3/4 263/3/4
f 260/3/4 262/3/4 264/3/4
f 262/4/4 263/4/4 264/4/4
f 263/3/4 261/3/4 265/3/4
f 264/4/4 263/4/4 265/4/4
f 260/3/4 264/3/4 266/3/4
f 264/3/4 265/3/4 266/3/4
f 265/3/4 261/3/4 267/3/4
f 266/3/4 265/3/4 267/3/4
f 268/3/4 269/3/4 270/3/4
f 270/3/4 269/3/4 271/3/4
f 268/3/4 270/3/4 272/3/4
f 270/4/4 271/4/4 272/4/4
f 271/3/4 269/3/4 273/3/4
f 272/4/4 271/4/4 273/4/4
f 268/3/4 272/3/4 274/3/4
f 272/3/4 273/3/4 274/3/4
f 273/3/4 269/3/4 275/3/4
f 274/3/4 273/3/4 275/3/4
f 276/6/4 277/6/4 278/6/4
f 278/6/4 277/6/4 279/6/4
f 276/6/4 278/6/4 280/6/4
f 278/5/4 279/5/4 280/5/4
f 279/6/4 277/6/4 281/6/4
f 280/5/4 279/5/4 281/5/4
f 276/6/4 280/6/4 282/6/4
f 280/6/4 281/6/4 282/6/4
f 281/6/4 277/6/4 283/6/4
f 282/6/4 281/6/4 283/6/4
f 286/3/5 285/3/5 284/3/5
f 287/3/5 285/3/5 286/3/5
f 290/3/5 289/3/5 288/3/5
f 291/3/5 289/3/5 290/3/5
f 292/3/5 286/3/5 284/3/5
f 292/4/5 287/4/5 286/4/5
f 293/3/5 285/3/5 287/3/5
f 293/4/5 287/4/5 292/4/5
f 294/4/5 291/4/5 290/4/5
f 294/3/5 290/3/5 288/3/5
f 295/3/5 289/3/5 291/3/5
f 295/4/5 291/4/5 294/4/5
f 296/3/5 292/3/5 284/3/5
f 296/3/5 293/3/5 292/3/5
f 297/3/5 285/3/5 293/3/5
f 297/3/5 293/3/5 296/3/5
f 298/3/5 294/3/5 288/3/5
f 298/3/5 295/3/5 294/3/5
f 299/3/5 289/3/5 295/3/5
f 299/3/5 295/3/5 298/3/5
f 302/6/5 301/6/5 300/6/5
f 303/6/5 301/6/5 302/6/5
f 304/6/5 302/6/5 300/6/5
f 304/5/5 303/5/5 302/5/5
f 305/6/5 301/6/5 303/6/5
f 305/5/5 303/5/5 304/5/5
f 306/6/5 304/6/5 300/6/5
f 306/6/5 305/6/5 304/6/5
f 307/6/5 301/6/5 305/6/5
f 307/6/5 305/6/5 306/6/5
f 312/3/5 309/3/5 308/3/5
f 313/3/5 309/3/5 312/3/5
f 314/3/5 311/3/5 310/3/5
f 315/3/5 311/3/5 314/3/5
f 316/4/5 313/4/5 312/4/5
f 317/4/5 313/4/5 316/4/5
f 318/4/5 313/4/5 317/4/5
f 319/4/5 313/4/5 318/4/5
f 320/4/5 315/4/5 314/4/5
f 321/3/5 311/3/5 315/3/5
f 321/4/5 315/4/5 320/4/5
f 322/4/5 316/4/5 312/4/5
f 323/4/5 313/4/5 319/4/5
f 324/4/5 320/4/5 314/4/5
f 325/3/5 311/3/5 321/3/5
f 326/3/5 312/3/5 308/3/5
f 326/4/5 323/4/5 322/4/5
f 326/4/5 322/4/5 312/4/5
f 327/3/5 309/3/5 313/3/5
f 327/4/5 323/4/5 326/4/5
f 327/4/5 313/4/5 323/4/5
f 328/4/5 325/4/5 324/4/5
f 328/3/5 314/3/5 310/3/5
f 328/4/5 324/4/5 314/4/5
f 329/3/5 311/3/5 325/3/5
f 329/4/5 325/4/5 328/4/5
f 330/3/5 326/3/5 308/3/5
f 330/3/5 327/3/5 326/3/5
f 331/3/5 309/3/5 327/3/5
f 331/3/5 327/3/5 330/3/5
f 332/3/5 328/3/5 310/3/5
f 332/3/5 329/3/5 328/3/5
f 333/3/5 311/3/5 329/3/5
f 333/3/5 329/3/5 332/3/5
f 338/3/5 335/3/5 334/3/5
f 339/3/5 335/3/5 338/3/5
f 340/3/5 337/3/5 336/3/5
f 341/3/5 337/3/5 340/3/5
f 342/3/5 335/3/5 339/3/5
f 343/3/5 342/3/5 339/3/5
f 344/3/5 338/3/5 334/3/5
f 344/4/5 339/4/5 338/4/5
f 345/3/5 343/3/5 339/3/5
f 345/4/5 339/4/5 344/4/5
f 346/3/5 340/3/5 336/3/5
f 346/4/5 341/4/5 340/4/5
f 347/3/5 337/3/5 341/3/5
f 347/4/5 341/4/5 346/4/5
f 348/3/5 344/3/5 334/3/5
f 348/3/5 345/3/5 344/3/5
f 349/3/5 343/3/5 345/3/5
f 349/3/5 345/3/5 348/3/5
f 350/3/5 346/3/5 336/3/5
f 350/3/5 347/3/5 346/3/5
f 351/3/5 337/3/5 347/3/5
f 351/3/5 347/3/5 350/3/5
f 354/5/5 353/5/5 352/5/5
f 355/5/5 353/5/5 354/5/5
f 356/3/6 357/3/6 358/3/6
f 358/3/6 357/3/6 359/3/6
f 360/3/6 361/3/6 362/3/6
f 362/3/6 361/3/6 363/3/6
f 356/3/6 358/3/6 364/3/6
f 358/4/6 359/4/6 364/4/6
f 359/3/6 357/3/6 365/3/6
f 364/4/6 359/4/6 365/4/6
f 362/4/6 363/4/6 366/4/6
f 360/3/6 362/3/6 366/3/6
f 363/3/6 361/3/6 367/3/6
f 366/4/6 363/4/6 367/4/6
f 356/3/6 364/3/6 368/3/6
f 364/3/6 365/3/6 368/3/6
f 368/3/6 365/3/6 369/3/6
f 365/3/6 357/3/6 370/3/6
f 369/3/6 365/3/6 370/3/6
f 370/3/6 357/3/6 371/3/6
f 360/3/6 366/3/6 372/3/6
f 366/3/6 367/3/6 372/3/6
f 372/3/6 367/3/6 373/3/6
f 367/3/6 361/3/6 374/3/6
f 373/3/6 367/3/6 374/3/6
f 374/3/6 361/3/6 375/3/6
f 376/5/6 377/5/6 378/5/6
f 378/5/6 377/5/6 379/5/6
f 380/3/6 381/3/6 384/3/6
f 384/3/6 381/3/6 385/3/6
f 382/3/6 383/3/6 386/3/6
f 386/3/6 383/3/6 387/3/6
f 380/3/6 384/3/6 388/3/6
f 384/4/6 385/4/6 389/4/6
f 388/3/6 384/3/6 389/3/6
f 385/3/6 381/3/6 390/3/6
f 389/4/6 385/4/6 390/4/6
f 382/3/6 386/3/6 391/3/6
f 386/4/6 387/4/6 391/4/6
f 387/3/6 383/3/6 392/3/6
f 391/4/6 387/4/6 392/4/6
f 388/3/6 389/3/6 393/3/6
f 389/3/6 390/3/6 393/3/6
f 390/3/6 381/3/6 394/3/6
f 393/3/6 390/3/6 394/3/6
f 382/3/6 391/3/6 395/3/6
f 391/3/6 392/3/6 395/3/6
f 392/3/6 383/3/6 396/3/6
f 395/3/6 392/3/6 396/3/6
f 397/3/6 398/3/6 401/3/6
f 401/3/6 398/3/6 402/3/6
f 399/3/6 400/3/6 403/3/6
f 403/3/6 400/3/6 404/3/6
f 397/3/6 401/3/6 405/3/6
f 401/4/6 402/4/6 405/4/6
f 402/3/6 398/3/6 406/3/6
f 405/4/6 402/4/6 406/4/6
f 403/4/6 404/4/6 407/4/6
f 399/3/6 403/3/6 407/3/6
f 404/3/6 400/3/6 408/3/6
f 407/4/6 404/4/6 408/4/6
f 397/3/6 405/3/6 409/3/6
f 405/3/6 406/3/6 409/3/6
f 406/3/6 398/3/6 410/3/6
f 409/3/6 406/3/6 410/3/6
f 399/3/6 407/3/6 411/3/6
f 407/3/6 408/3/6 411/3/6
f 408/3/6 400/3/6 412/3/6
f 411/3/6 408/3/6 412/3/6
f 413/6/6 414/6/6 415/6/6
f 415/6/6 414/6/6 416/6/6
f 417/6/6 418/6/6 419/6/6
f 419/6/6 418/6/6 420/6/6
f 417/6/6 419/6/6 422/6/6
f 419/5/6 420/5/6 422/5/6
f 420/6/6 421/6/6 423/6/6
f 422/5/6 420/5/6 423/5/6
f 417/6/6 422/6/6 424/6/6
f 422/6/6 423/6/6 424/6/6
f 423/6/6 421/6/6 425/6/6
f 424/6/6 423/6/6 425/6/6
